<svg width="36.68" height="40" viewBox="0 0 374 342" fill="none" xmlns="http://www.w3.org/2000/svg">
<path d="M100.412 109.56C115.472 109.56 127.719 97.3131 127.719 82.2535C127.719 67.1939 115.472 54.9468 100.412 54.9468C85.3526 54.9468 73.1056 67.1939 73.1056 82.2535C73.1056 97.3131 85.3509 109.56 100.412 109.56ZM100.412 68.6002C107.939 68.6002 114.066 74.7271 114.066 82.2535C114.066 89.7799 107.939 95.9068 100.412 95.9068C92.8859 95.9068 86.7589 89.7799 86.7589 82.2535C86.7589 74.7271 92.8842 68.6002 100.412 68.6002ZM123.401 17.4002C123.401 13.1301 126.862 9.66897 131.131 9.66897C135.399 9.66897 138.86 13.1301 138.86 17.4002C138.86 21.6685 135.399 25.1297 131.131 25.1297C126.862 25.1297 123.401 21.6685 123.401 17.4002ZM15.9818 119.8C15.9818 124.069 12.5206 127.53 8.25226 127.53C3.98389 127.53 0.522766 124.069 0.522766 119.8C0.522766 115.53 3.98389 112.069 8.25226 112.069C12.5206 112.069 15.9818 115.53 15.9818 119.8ZM366.652 0.333496H276.678C232.186 0.333496 195.986 36.5336 195.986 81.0264V164.173H112.839C68.3457 164.173 32.1456 200.374 32.1456 244.866V334.84C32.1456 338.614 35.1988 341.667 38.9723 341.667H128.946C173.439 341.667 209.639 305.467 209.639 260.974V177.827H292.786C337.279 177.827 373.479 141.627 373.479 97.1339V7.16016C373.479 3.38672 370.426 0.333496 366.652 0.333496ZM195.986 260.974C195.986 297.94 165.912 328.013 128.946 328.013H45.7989V244.866C45.7989 207.9 75.8721 177.827 112.839 177.827H195.986V260.974Z" fill="white"/>
</svg>
