<svg width="70" height="70" viewBox="0 0 376 410" fill="none" xmlns="http://www.w3.org/2000/svg">
<circle cx="188" cy="205" r="188" fill="#222030"/>
<path d="M58.2933 54.8135C73.353 54.8135 85.6 42.5631 85.6 27.5069C85.6 12.4506 73.353 0.200195 58.2933 0.200195C43.2337 0.200195 30.9867 12.4506 30.9867 27.5069C30.9867 42.5631 43.2337 54.8135 58.2933 54.8135ZM58.2933 13.8535C65.8197 13.8535 71.9467 19.977 71.9467 27.5069C71.9467 35.0367 65.8197 41.1602 58.2933 41.1602C50.7669 41.1602 44.64 35.0367 44.64 27.5069C44.64 19.977 50.7669 13.8535 58.2933 13.8535ZM258.775 58.2269C258.775 53.9568 262.237 50.4957 266.507 50.4957C270.777 50.4957 274.238 53.9568 274.238 58.2269C274.238 62.4952 270.777 65.9564 266.507 65.9564C262.237 65.9564 258.775 62.4952 258.775 58.2269ZM320.215 30.9202C320.215 26.6501 323.677 23.189 327.947 23.189C332.217 23.189 335.678 26.6501 335.678 30.9202C335.678 35.1886 332.217 38.6497 327.947 38.6497C323.677 38.6497 320.215 35.1886 320.215 30.9202ZM335.678 358.6C335.678 362.869 332.217 366.33 327.947 366.33C323.677 366.33 320.215 362.869 320.215 358.6C320.215 354.33 323.677 350.869 327.947 350.869C332.217 350.869 335.678 354.33 335.678 358.6ZM181.694 193.96C182.747 196.51 185.24 198.174 188 198.174C190.76 198.174 193.253 196.51 194.306 193.96L231.066 105.217C231.759 103.544 231.759 101.663 231.066 99.9907L194.306 11.2406C193.253 8.69087 190.76 7.02686 188 7.02686C185.24 7.02686 182.747 8.69087 181.694 11.2406L144.934 99.9907C144.241 101.663 144.241 103.544 144.934 105.217L181.694 193.96ZM188 31.6933L217.373 102.604L188 173.507L158.627 102.604L188 31.6933ZM194.306 222.867C193.253 220.318 190.76 218.654 188 218.654C185.24 218.654 182.747 220.318 181.694 222.867L144.934 311.617C144.241 313.29 144.241 315.171 144.934 316.843L181.694 405.586C182.747 408.136 185.24 409.8 188 409.8C190.76 409.8 193.253 408.136 194.306 405.586L231.066 316.843C231.759 315.171 231.759 313.29 231.066 311.617L194.306 222.867ZM188 385.134L158.627 314.23L188 243.32L217.373 314.23L188 385.134ZM178.013 216.544C176.96 213.994 174.473 212.327 171.713 212.324L75.6604 212.223H75.6535C73.8462 212.223 72.1139 212.94 70.8339 214.216L2.8403 282.073C0.881051 284.027 0.293961 286.959 1.3538 289.513C2.40681 292.062 4.89342 293.73 7.6531 293.733L103.713 293.83H103.72C105.527 293.83 107.259 293.114 108.539 291.837L176.526 223.983C178.487 222.031 179.074 219.097 178.013 216.544ZM100.9 280.174L24.1463 280.097L78.4729 225.88L155.22 225.96L100.9 280.174ZM272.287 122.993C270.48 122.993 268.747 123.71 267.467 124.987L199.474 192.844C197.515 194.798 196.928 197.73 197.987 200.283C199.04 202.833 201.527 204.5 204.287 204.504L300.346 204.601H300.353C302.161 204.601 303.893 203.884 305.173 202.607L373.16 134.754C375.119 132.8 375.706 129.868 374.646 127.314C373.593 124.765 371.107 123.097 368.347 123.094L272.294 122.993H272.287ZM351.854 136.73L297.534 190.944L220.78 190.867L275.107 136.65L351.854 136.73ZM305.166 214.216C303.886 212.94 302.152 212.223 300.346 212.223H300.34L204.287 212.324C201.527 212.327 199.04 213.994 197.987 216.544C196.928 219.097 197.515 222.031 199.474 223.983L267.461 291.837C268.741 293.114 270.475 293.83 272.28 293.83H272.287L368.347 293.733C371.107 293.73 373.593 292.062 374.646 289.513C375.706 286.959 375.119 284.026 373.16 282.073L305.166 214.216ZM70.8271 202.607C72.1071 203.884 73.841 204.601 75.6467 204.601H75.6535L171.713 204.504C174.473 204.5 176.96 202.833 178.013 200.283C179.072 197.73 178.485 194.796 176.526 192.844L108.532 124.987C107.252 123.71 105.518 122.993 103.713 122.993H103.706L7.6531 123.094C4.89342 123.097 2.40681 124.765 1.3538 127.314C0.293961 129.868 0.881051 132.801 2.8403 134.754L70.8271 202.607Z" fill="white"/>
</svg>
