<svg width="370" height="376" viewBox="0 0 370 376" fill="none" xmlns="http://www.w3.org/2000/svg">
<path d="M68.9464 54.8799C84.006 54.8799 96.253 42.6329 96.253 27.5733C96.253 12.5136 84.006 0.266602 68.9464 0.266602C53.8867 0.266602 41.6397 12.5136 41.6397 27.5733C41.6397 42.6329 53.8867 54.8799 68.9464 54.8799ZM68.9464 13.9199C76.4728 13.9199 82.5997 20.0469 82.5997 27.5733C82.5997 35.0997 76.4728 41.2266 68.9464 41.2266C61.42 41.2266 55.293 35.0997 55.293 27.5733C55.293 20.0469 61.42 13.9199 68.9464 13.9199ZM58.7064 98.3487C62.9747 98.3487 66.4376 101.81 66.4376 106.08C66.4376 110.348 62.9764 113.809 58.7064 113.809C54.4363 113.809 50.9752 110.348 50.9752 106.08C50.9752 101.81 54.438 98.3487 58.7064 98.3487ZM3.18849 58.2933C3.18849 54.0232 6.64961 50.5621 10.9197 50.5621C15.1898 50.5621 18.6509 54.0232 18.6509 58.2933C18.6509 62.5616 15.1898 66.0228 10.9197 66.0228C6.64961 66.0228 3.18849 62.5616 3.18849 58.2933ZM362.493 164.107H355.666V157.28C355.666 153.507 352.613 150.453 348.84 150.453H259.893L225.946 116.506C225.946 116.48 225.961 116.46 225.961 116.434V27.5733C225.961 23.7998 222.908 20.7466 219.135 20.7466H212.308V13.9199C212.308 10.1465 209.255 7.09327 205.481 7.09327H164.521C160.748 7.09327 157.695 10.1465 157.695 13.9199V20.7466H150.868C147.095 20.7466 144.041 23.7998 144.041 27.5733V115.827C144.041 116.032 144.14 116.204 144.157 116.404L110.106 150.453H21.1597C17.3862 150.453 14.333 153.507 14.333 157.28V164.107H7.50635C3.73291 164.107 0.679688 167.16 0.679688 170.933V211.893C0.679688 215.667 3.73291 218.72 7.50635 218.72H14.333V225.547C14.333 229.32 17.3862 232.373 21.1597 232.373H110.106L144.04 266.307V355.253C144.04 359.027 147.093 362.08 150.866 362.08H157.693V368.907C157.693 372.68 160.746 375.733 164.52 375.733H205.48C209.253 375.733 212.306 372.68 212.306 368.907V362.08H219.133C222.906 362.08 225.96 359.027 225.96 355.253V266.307L259.893 232.373H348.84C352.613 232.373 355.666 229.32 355.666 225.547V218.72H362.493C366.266 218.72 369.32 215.667 369.32 211.893V170.933C369.32 167.16 366.266 164.107 362.493 164.107ZM185 287.959L88.4536 191.413L185 94.8671L281.546 191.413L185 287.959ZM157.693 34.3999H164.52C168.293 34.3999 171.346 31.3467 171.346 27.5733V20.7466H198.653V27.5733C198.653 31.3467 201.706 34.3999 205.48 34.3999H212.306V102.866L189.826 80.3861C187.16 77.7203 182.839 77.7203 180.173 80.3861L157.693 102.866V34.3999ZM212.306 348.427H205.48C201.706 348.427 198.653 351.48 198.653 355.253V362.08H171.346V355.253C171.346 351.48 168.293 348.427 164.52 348.427H157.693V279.96L180.173 302.44C181.506 303.773 183.254 304.441 185 304.441C186.746 304.441 188.493 303.773 189.826 302.44L212.306 279.96V348.427Z" fill="#151419"/>
</svg>
