<svg width="384" height="390" viewBox="0 0 384 390" fill="none" xmlns="http://www.w3.org/2000/svg">
<path d="M342.187 34.5733H41.8135C38.0435 34.5733 34.9869 37.6299 34.9869 41.3999V341.773C34.9869 344.533 36.6509 347.023 39.2006 348.079C40.0471 348.429 40.9329 348.6 41.8135 348.6C43.5902 348.6 45.3327 347.907 46.64 346.6L112.906 280.333H273.92C277.69 280.333 280.747 277.277 280.747 273.507V112.493L347.013 46.2264C348.967 44.2723 349.549 41.3402 348.493 38.787C347.437 36.2373 344.947 34.5733 342.187 34.5733ZM116.907 257.027V116.493H257.441L116.907 257.027ZM271.094 102.84H110.08C106.31 102.84 103.254 105.897 103.254 109.667V270.68L48.6402 325.294V48.2266H325.707L271.094 102.84ZM383.147 369.08V382.733C383.147 386.503 380.09 389.56 376.32 389.56H362.667C358.897 389.56 355.84 386.503 355.84 382.733C355.84 378.963 358.897 375.907 362.667 375.907H369.494V369.08C369.494 365.31 372.55 362.253 376.32 362.253C380.09 362.253 383.147 365.31 383.147 369.08ZM238.21 382.733C238.21 386.503 235.153 389.56 231.383 389.56H205.126C201.356 389.56 198.299 386.503 198.299 382.733C198.299 378.963 201.356 375.907 205.126 375.907H231.383C235.153 375.907 238.21 378.963 238.21 382.733ZM185.697 382.733C185.697 386.503 182.641 389.56 178.871 389.56H152.617C148.847 389.56 145.79 386.503 145.79 382.733C145.79 378.963 148.847 375.907 152.617 375.907H178.871C182.641 375.907 185.697 378.963 185.697 382.733ZM343.236 382.733C343.236 386.503 340.18 389.56 336.41 389.56H310.153C306.383 389.56 303.326 386.503 303.326 382.733C303.326 378.963 306.383 375.907 310.153 375.907H336.41C340.18 375.907 343.236 378.963 343.236 382.733ZM290.724 382.733C290.724 386.503 287.667 389.56 283.897 389.56H257.64C253.87 389.56 250.814 386.503 250.814 382.733C250.814 378.963 253.87 375.907 257.64 375.907H283.897C287.667 375.907 290.724 378.963 290.724 382.733ZM80.6743 382.733C80.6743 386.503 77.6177 389.56 73.8476 389.56H47.5906C43.8206 389.56 40.7639 386.503 40.7639 382.733C40.7639 378.963 43.8206 375.907 47.5906 375.907H73.8476C77.6177 375.907 80.6743 378.963 80.6743 382.733ZM133.187 382.733C133.187 386.503 130.13 389.56 126.36 389.56H100.103C96.333 389.56 93.2763 386.503 93.2763 382.733C93.2763 378.963 96.333 375.907 100.103 375.907H126.36C130.13 375.907 133.187 378.963 133.187 382.733ZM28.1602 382.733C28.1602 386.503 25.1035 389.56 21.3335 389.56H7.68018C3.91016 389.56 0.853516 386.503 0.853516 382.733V369.08C0.853516 365.31 3.91016 362.253 7.68018 362.253C11.4502 362.253 14.5068 365.31 14.5068 369.08V375.907H21.3335C25.1035 375.907 28.1602 378.963 28.1602 382.733ZM0.853516 342.301V315.521C0.853516 311.751 3.91016 308.695 7.68018 308.695C11.4502 308.695 14.5068 311.751 14.5068 315.521V342.301C14.5068 346.071 11.4502 349.127 7.68018 349.127C3.91016 349.127 0.853516 346.071 0.853516 342.301ZM0.853516 288.737V261.958C0.853516 258.188 3.91016 255.131 7.68018 255.131C11.4502 255.131 14.5068 258.188 14.5068 261.958V288.737C14.5068 292.507 11.4502 295.564 7.68018 295.564C3.91016 295.564 0.853516 292.507 0.853516 288.737ZM0.853516 235.173V208.394C0.853516 204.624 3.91016 201.567 7.68018 201.567C11.4502 201.567 14.5068 204.624 14.5068 208.394V235.173C14.5068 238.943 11.4502 242 7.68018 242C3.91016 242 0.853516 238.943 0.853516 235.173ZM0.853516 128.047V101.266C0.853516 97.4964 3.91016 94.4397 7.68018 94.4397C11.4502 94.4397 14.5068 97.4964 14.5068 101.266V128.046C14.5068 131.816 11.4502 134.872 7.68018 134.872C3.91016 134.872 0.853516 131.817 0.853516 128.047ZM0.853516 181.609V154.83C0.853516 151.06 3.91016 148.003 7.68018 148.003C11.4502 148.003 14.5068 151.06 14.5068 154.83V181.609C14.5068 185.379 11.4502 188.436 7.68018 188.436C3.91016 188.436 0.853516 185.379 0.853516 181.609ZM0.853516 74.4837V47.7027C0.853516 43.9326 3.91016 40.876 7.68018 40.876C11.4502 40.876 14.5068 43.9326 14.5068 47.7027V74.482C14.5068 78.252 11.4502 81.3086 7.68018 81.3086C3.91016 81.3086 0.853516 78.2537 0.853516 74.4837ZM28.1602 7.26661C28.1602 11.0366 25.1035 14.0933 21.3335 14.0933H14.5068V20.9199C14.5068 24.69 11.4502 27.7466 7.68018 27.7466C3.91016 27.7466 0.853516 24.69 0.853516 20.9199V7.26661C0.853516 3.49658 3.91016 0.439941 7.68018 0.439941H21.3335C25.1035 0.439941 28.1602 3.49658 28.1602 7.26661ZM303.326 7.26661C303.326 3.49658 306.383 0.439941 310.153 0.439941H336.41C340.18 0.439941 343.236 3.49658 343.236 7.26661C343.236 11.0366 340.18 14.0933 336.41 14.0933H310.153C306.383 14.0933 303.326 11.0366 303.326 7.26661ZM93.2763 7.26661C93.2763 3.49658 96.333 0.439941 100.103 0.439941H126.36C130.13 0.439941 133.187 3.49658 133.187 7.26661C133.187 11.0366 130.13 14.0933 126.36 14.0933H100.103C96.333 14.0933 93.2763 11.0366 93.2763 7.26661ZM40.7639 7.26661C40.7639 3.49658 43.8206 0.439941 47.5906 0.439941H73.8476C77.6177 0.439941 80.6743 3.49658 80.6743 7.26661C80.6743 11.0366 77.6177 14.0933 73.8476 14.0933H47.5906C43.8206 14.0933 40.7639 11.0366 40.7639 7.26661ZM250.814 7.26661C250.814 3.49658 253.87 0.439941 257.64 0.439941H283.897C287.667 0.439941 290.724 3.49658 290.724 7.26661C290.724 11.0366 287.667 14.0933 283.897 14.0933H257.64C253.87 14.0933 250.814 11.0366 250.814 7.26661ZM145.79 7.26661C145.79 3.49658 148.847 0.439941 152.617 0.439941H178.874C182.644 0.439941 185.701 3.49658 185.701 7.26661C185.701 11.0366 182.644 14.0933 178.874 14.0933H152.617C148.847 14.0933 145.79 11.0366 145.79 7.26661ZM198.303 7.26661C198.303 3.49658 201.36 0.439941 205.13 0.439941H231.383C235.153 0.439941 238.21 3.49658 238.21 7.26661C238.21 11.0366 235.153 14.0933 231.383 14.0933H205.13C201.36 14.0933 198.303 11.0366 198.303 7.26661ZM383.147 7.26661V20.9199C383.147 24.69 380.09 27.7466 376.32 27.7466C372.55 27.7466 369.494 24.69 369.494 20.9199V14.0933H362.667C358.897 14.0933 355.84 11.0366 355.84 7.26661C355.84 3.49658 358.897 0.439941 362.667 0.439941H376.32C380.09 0.439941 383.147 3.49658 383.147 7.26661ZM383.147 101.263V128.042C383.147 131.812 380.09 134.869 376.32 134.869C372.55 134.869 369.494 131.812 369.494 128.042V101.263C369.494 97.4929 372.55 94.4363 376.32 94.4363C380.09 94.4363 383.147 97.4929 383.147 101.263ZM383.147 315.516V342.296C383.147 346.066 380.09 349.122 376.32 349.122C372.55 349.122 369.494 346.066 369.494 342.296V315.516C369.494 311.746 372.55 308.69 376.32 308.69C380.09 308.69 383.147 311.746 383.147 315.516ZM383.147 47.6992V74.4786C383.147 78.2486 380.09 81.3052 376.32 81.3052C372.55 81.3052 369.494 78.2486 369.494 74.4786V47.6992C369.494 43.9292 372.55 40.8726 376.32 40.8726C380.09 40.8726 383.147 43.9292 383.147 47.6992ZM383.147 154.827V181.606C383.147 185.376 380.09 188.433 376.32 188.433C372.55 188.433 369.494 185.376 369.494 181.606V154.827C369.494 151.057 372.55 148 376.32 148C380.09 148 383.147 151.057 383.147 154.827ZM383.147 261.952V288.732C383.147 292.502 380.09 295.558 376.32 295.558C372.55 295.558 369.494 292.502 369.494 288.732V261.952C369.494 258.182 372.55 255.126 376.32 255.126C380.09 255.126 383.147 258.182 383.147 261.952ZM383.147 208.39V235.17C383.147 238.94 380.09 241.996 376.32 241.996C372.55 241.996 369.494 238.94 369.494 235.17V208.39C369.494 204.62 372.55 201.564 376.32 201.564C380.09 201.564 383.147 204.62 383.147 208.39Z" fill="#151419"/>
</svg>
