<svg width="424" height="364" viewBox="0 0 424 364" fill="none" xmlns="http://www.w3.org/2000/svg">
<path d="M34.8003 268.313H382.366C384.899 268.313 387.22 266.914 388.399 264.676C389.586 262.437 389.432 259.73 388.007 257.64L214.227 2.90929C211.681 -0.811241 205.494 -0.824895 202.948 2.90929L29.1597 257.64C27.7329 259.73 27.5793 262.437 28.7672 264.676C29.9465 266.912 32.2676 268.313 34.8003 268.313ZM208.587 18.87L369.447 254.66H47.7197L208.587 18.87ZM422.441 353.213L371.241 278.12C368.694 274.392 362.508 274.392 359.961 278.12L314.4 344.941L268.841 278.12C266.294 274.392 260.108 274.392 257.561 278.12L212 344.941L166.441 278.12C163.894 274.392 157.708 274.392 155.161 278.12L109.6 344.941L64.0406 278.12C61.4942 274.392 55.3076 274.392 52.7612 278.12L1.56121 353.213C0.134437 355.307 -0.0191622 358.012 1.16868 360.249C2.34798 362.487 4.66905 363.886 7.20174 363.886H416.802C419.334 363.886 421.656 362.487 422.835 360.249C424.019 358.012 423.867 355.305 422.441 353.213ZM122.52 350.233L160.8 294.084L199.081 350.233H122.52ZM327.32 350.233L365.6 294.084L403.881 350.233H327.32ZM75.1663 56.6864C90.226 56.6864 102.473 44.4359 102.473 29.3797C102.473 14.3235 90.226 2.07303 75.1663 2.07303C60.1067 2.07303 47.8597 14.3235 47.8597 29.3797C47.8597 44.4359 60.1067 56.6864 75.1663 56.6864ZM75.1663 15.7264C82.6927 15.7264 88.8197 21.8499 88.8197 29.3797C88.8197 36.9095 82.6927 43.033 75.1663 43.033C67.6399 43.033 61.513 36.9095 61.513 29.3797C61.513 21.8499 67.6399 15.7264 75.1663 15.7264ZM337.09 46.4464C337.09 42.1763 340.551 38.7152 344.821 38.7152C349.091 38.7152 352.553 42.1763 352.553 46.4464C352.553 50.7147 349.091 54.1758 344.821 54.1758C340.551 54.1758 337.09 50.7147 337.09 46.4464ZM208.286 110.395C221.46 110.395 232.18 99.6756 232.18 86.5018C232.18 73.3281 221.46 62.6085 208.286 62.6085C195.113 62.6085 184.393 73.3281 184.393 86.5018C184.393 99.6756 195.113 110.395 208.286 110.395ZM208.286 76.2618C213.934 76.2618 218.526 80.8545 218.526 86.5018C218.526 92.1492 213.934 96.7418 208.286 96.7418C202.639 96.7418 198.046 92.1492 198.046 86.5018C198.046 80.8545 202.641 76.2618 208.286 76.2618ZM208.286 124.953C195.113 124.953 184.393 135.673 184.393 148.846C184.393 162.02 195.113 172.74 208.286 172.74C221.46 172.74 232.18 162.02 232.18 148.846C232.18 135.673 221.46 124.953 208.286 124.953ZM208.286 159.086C202.639 159.086 198.046 154.494 198.046 148.846C198.046 143.199 202.639 138.606 208.286 138.606C213.934 138.606 218.526 143.199 218.526 148.846C218.526 154.494 213.934 159.086 208.286 159.086ZM208.286 187.296C195.113 187.296 184.393 198.015 184.393 211.189C184.393 224.363 195.113 235.083 208.286 235.083C221.46 235.083 232.18 224.363 232.18 211.189C232.18 198.015 221.46 187.296 208.286 187.296ZM208.286 221.429C202.639 221.429 198.046 216.837 198.046 211.189C198.046 205.542 202.639 200.949 208.286 200.949C213.934 200.949 218.526 205.542 218.526 211.189C218.526 216.837 213.934 221.429 208.286 221.429ZM357.57 87.4064C357.57 83.1363 361.031 79.6752 365.301 79.6752C369.571 79.6752 373.033 83.1363 373.033 87.4064C373.033 91.6747 369.571 95.1358 365.301 95.1358C361.031 95.1358 357.57 91.6747 357.57 87.4064Z" fill="white" fill-opacity="0.34"/>
</svg>
