<svg width="380" height="392" viewBox="0 0 380 392" fill="none" xmlns="http://www.w3.org/2000/svg">
<path d="M334.614 0.641235C319.558 0.641235 307.307 12.8917 307.307 27.9479C307.307 43.0041 319.558 55.2546 334.614 55.2546C349.67 55.2546 361.921 43.0041 361.921 27.9479C361.921 12.8917 349.67 0.641235 334.614 0.641235ZM334.614 41.6012C327.084 41.6012 320.961 35.4777 320.961 27.9479C320.961 20.4181 327.084 14.2946 334.614 14.2946C342.144 14.2946 348.267 20.4181 348.267 27.9479C348.267 35.4777 342.144 41.6012 334.614 41.6012ZM227.898 17.7079C227.898 13.4378 231.359 9.9767 235.629 9.9767C239.899 9.9767 243.36 13.4378 243.36 17.7079C243.36 21.9763 239.899 25.4374 235.629 25.4374C231.359 25.4374 227.898 21.978 227.898 17.7079ZM379.892 120.108C379.892 124.376 376.431 127.837 372.161 127.837C367.891 127.837 364.43 124.376 364.43 120.108C364.43 115.838 367.891 112.377 372.161 112.377C376.431 112.377 379.892 115.84 379.892 120.108ZM310.734 110.791L160.548 23.642C158.428 22.4081 155.815 22.4081 153.694 23.642L3.5071 110.791C1.40449 112.011 0.107422 114.261 0.107422 116.695V294.188C0.107422 296.584 1.36353 298.804 3.41494 300.038L153.602 390.382C154.685 391.033 155.906 391.359 157.121 391.359C158.336 391.359 159.558 391.033 160.64 390.382L310.827 300.038C312.876 298.804 314.134 296.586 314.134 294.188V116.695C314.134 114.261 312.837 112.011 310.734 110.791ZM157.121 37.4387L293.799 116.747L203.431 170.147L163.947 146.925V109.868C163.947 106.098 160.891 103.041 157.121 103.041C153.351 103.041 150.294 106.098 150.294 109.868V146.925L105.875 173.052C103.787 174.279 102.507 176.515 102.507 178.935V229.785L13.7608 282.226V120.625L157.121 37.4387ZM157.121 376.565L20.2649 294.241L108.102 242.338L150.296 267.151V301.015C150.296 304.785 153.352 307.841 157.122 307.841C160.892 307.841 163.949 304.785 163.949 301.015V267.151L208.369 241.027C210.456 239.8 211.736 237.564 211.736 235.144V181.099L300.482 128.657V290.327L157.121 376.565Z" fill="#151419"/>
</svg>
