<svg width="396" height="384" viewBox="0 0 396 384" fill="none" xmlns="http://www.w3.org/2000/svg">
<path d="M395.099 352.357C396.306 350.206 396.26 347.569 394.98 345.463L203.833 31.4367C201.353 27.3697 194.646 27.3697 192.166 31.4367L1.01965 345.463C-0.260352 347.569 -0.306431 350.206 0.900182 352.357C2.11362 354.51 4.3869 355.84 6.85303 355.84H389.146C391.613 355.84 393.886 354.51 395.099 352.357ZM198 48.116L281.427 185.173H114.573L198 48.116ZM18.9994 342.187L102.426 205.129L185.853 342.187H18.9994ZM210.146 342.187L293.573 205.129L377 342.187H210.146ZM273.093 55.4666C288.153 55.4666 300.4 43.2162 300.4 28.1599C300.4 13.1037 288.153 0.853271 273.093 0.853271C258.033 0.853271 245.786 13.1037 245.786 28.1599C245.786 43.2162 258.033 55.4666 273.093 55.4666ZM273.093 14.5066C280.619 14.5066 286.746 20.6301 286.746 28.1599C286.746 35.6898 280.619 41.8133 273.093 41.8133C265.567 41.8133 259.44 35.6898 259.44 28.1599C259.44 20.6301 265.567 14.5066 273.093 14.5066ZM343.868 31.5733C343.868 27.3032 347.33 23.8421 351.6 23.8421C355.87 23.8421 359.331 27.3032 359.331 31.5733C359.331 35.8416 355.87 39.3028 351.6 39.3028C347.33 39.3028 343.868 35.8416 343.868 31.5733ZM323.389 93.0133C323.389 88.7432 326.85 85.2821 331.12 85.2821C335.39 85.2821 338.851 88.7432 338.851 93.0133C338.851 97.2816 335.39 100.743 331.12 100.743C326.85 100.743 323.389 97.2816 323.389 93.0133ZM27.333 376.32C27.333 380.09 24.2798 383.147 20.5064 383.147H6.85303C3.07959 383.147 0.0263672 380.09 0.0263672 376.32C0.0263672 372.55 3.07959 369.493 6.85303 369.493H20.5064C24.2798 369.493 27.333 372.55 27.333 376.32ZM81.9464 376.32C81.9464 380.09 78.8931 383.147 75.1197 383.147H47.813C44.0396 383.147 40.9864 380.09 40.9864 376.32C40.9864 372.55 44.0396 369.493 47.813 369.493H75.1197C78.8931 369.493 81.9464 372.55 81.9464 376.32ZM300.4 376.32C300.4 380.09 297.346 383.147 293.573 383.147H266.266C262.493 383.147 259.44 380.09 259.44 376.32C259.44 372.55 262.493 369.493 266.266 369.493H293.573C297.346 369.493 300.4 372.55 300.4 376.32ZM245.786 376.32C245.786 380.09 242.733 383.147 238.96 383.147H211.653C207.88 383.147 204.826 380.09 204.826 376.32C204.826 372.55 207.88 369.493 211.653 369.493H238.96C242.733 369.493 245.786 372.55 245.786 376.32ZM355.013 376.32C355.013 380.09 351.96 383.147 348.186 383.147H320.88C317.106 383.147 314.053 380.09 314.053 376.32C314.053 372.55 317.106 369.493 320.88 369.493H348.186C351.96 369.493 355.013 372.55 355.013 376.32ZM136.56 376.32C136.56 380.09 133.506 383.147 129.733 383.147H102.426C98.6529 383.147 95.5997 380.09 95.5997 376.32C95.5997 372.55 98.6529 369.493 102.426 369.493H129.733C133.506 369.493 136.56 372.55 136.56 376.32ZM191.173 376.32C191.173 380.09 188.12 383.147 184.346 383.147H157.04C153.266 383.147 150.213 380.09 150.213 376.32C150.213 372.55 153.266 369.493 157.04 369.493H184.346C188.12 369.493 191.173 372.55 191.173 376.32ZM395.973 376.32C395.973 380.09 392.92 383.147 389.146 383.147H375.493C371.72 383.147 368.666 380.09 368.666 376.32C368.666 372.55 371.72 369.493 375.493 369.493H389.146C392.92 369.493 395.973 372.55 395.973 376.32Z" fill="#151419"/>
</svg>
